<?xml version="1.0" encoding="UTF-8"?>
<svg id="Calque_1" data-name="Calque 1" xmlns="http://www.w3.org/2000/svg" viewBox="0 0 19.79 14.75">
  <defs>
    <style>
      .cls-1 {
        fill: #1d1d1b;
        stroke-width: 0px;
      }
    </style>
  </defs>
  <path class="cls-1" d="M19.29,14.75H.5C.22,14.75,0,14.52,0,14.25V.5C0,.22.22,0,.5,0h18.79c.28,0,.5.22.5.5v13.75c0,.28-.22.5-.5.5ZM1,13.75h17.79V1H1v12.75Z"/>
  <path class="cls-1" d="M9.89,9.72c-.12,0-.24-.04-.34-.13L.16.87C-.04.68-.05.36.13.16c.19-.2.5-.21.71-.03l9.05,8.41L18.95.13c.2-.19.52-.18.71.03.19.2.18.52-.03.71l-9.39,8.72c-.1.09-.22.13-.34.13Z"/>
</svg>