<?xml version="1.0" encoding="UTF-8"?>
<svg id="Calque_1" xmlns="http://www.w3.org/2000/svg" viewBox="0 0 692.8 296.3">
  <defs>
    <style>
      .cls-1 {
        fill: none;
        stroke: #818c58;
        stroke-linecap: round;
        stroke-linejoin: round;
        stroke-width: 2px;
      }
    </style>
  </defs>
  <polygon class="cls-1" points="21.4 63.85 8.09 63.85 1 264.26 14.75 266.04 44.9 263.37 96.77 272.24 96.77 276.23 134.9 278.45 142.44 275.79 151.31 278.45 264.37 282.44 274.13 282.44 358.37 287.76 413.35 287.76 423.11 287.76 427.98 295.3 516.22 291.75 516.22 284.32 550.8 283.22 558.34 281.89 579.84 280.56 622.63 273.68 641.25 277.23 641.25 202.3 647.02 201.85 665.2 150.87 682.04 130.03 691.8 46.23 596.47 6.32 562.33 32.48 511.78 22.28 506.02 28.93 425.77 21.4 424.88 40.02 418.67 39.57 418.67 8.54 356.6 8.54 352.16 3.22 173.92 1 152.75 42.35 144.77 42.35 46.34 73.94 21.4 63.85"/>
  <line class="cls-1" x1="261.4" y1="2.09" x2="274.13" y2="282.44"/>
  <line class="cls-1" x1="264.37" y1="282.44" x2="173.92" y2="1"/>
  <polyline class="cls-1" points="164.06 20.25 155.41 114.73 219.92 144.12 151.31 278.45"/>
  <line class="cls-1" x1="152.75" y1="42.35" x2="155.41" y2="114.73"/>
  <polyline class="cls-1" points="134.9 278.45 144.77 42.35 142.44 275.79"/>
  <line class="cls-1" x1="108.15" y1="54.1" x2="96.77" y2="272.24"/>
  <line class="cls-1" x1="46.34" y1="73.94" x2="44.9" y2="263.37"/>
  <line class="cls-1" x1="21.4" y1="63.85" x2="14.75" y2="266.04"/>
  <polyline class="cls-1" points="352.16 3.22 358.37 287.76 356.6 8.54"/>
  <line class="cls-1" x1="418.67" y1="39.57" x2="413.35" y2="287.76"/>
  <line class="cls-1" x1="423.11" y1="287.76" x2="424.88" y2="40.02"/>
  <line class="cls-1" x1="425.77" y1="21.4" x2="427.98" y2="295.3"/>
  <line class="cls-1" x1="516.22" y1="284.32" x2="506.02" y2="28.93"/>
  <line class="cls-1" x1="511.78" y1="22.28" x2="509.44" y2="114.73"/>
  <line class="cls-1" x1="562.33" y1="32.48" x2="550.8" y2="283.22"/>
  <polyline class="cls-1" points="558.34 281.89 562.33 183.23 569.42 95.77 596.47 6.32 647.24 96.77 682.04 130.03"/>
  <polyline class="cls-1" points="563.27 171.61 579.84 280.56 585.72 194.54 580.66 58.61 647.24 96.77 691.8 46.23"/>
  <polyline class="cls-1" points="647.24 96.77 585.72 194.54 641.25 202.3"/>
  <line class="cls-1" x1="622.63" y1="273.68" x2="622.63" y2="199.7"/>
</svg>