<?xml version="1.0" encoding="UTF-8"?>
<svg id="Calque_1" data-name="Calque 1" xmlns="http://www.w3.org/2000/svg" viewBox="0 0 63.81 20.12">
  <defs>
    <style>
      .cls-1 {
        fill: #fee9cf;
        stroke-width: 0px;
      }
    </style>
  </defs>
  <g>
    <path class="cls-1" d="M26.91,17.39h-.83c-.11,0-.21,0-.33,0-.11,0-.22,0-.32-.01v.2c0,.19-.03.35-.09.49-.06.14-.16.24-.29.32-.13.07-.3.11-.52.11-.14,0-.27-.02-.38-.05-.11-.03-.21-.09-.29-.17-.08-.08-.15-.18-.21-.3-.06-.12-.1-.27-.12-.45-.02-.18-.04-.38-.04-.63s.01-.45.03-.61c.02-.17.06-.31.12-.42.06-.12.12-.21.2-.28.08-.07.17-.12.28-.14.11-.02.23-.03.36-.03.2,0,.38.03.52.08.14.05.24.14.31.28.07.13.1.32.1.56v.11s0,.04,0,.06c.1,0,.21,0,.31,0,.11,0,.21,0,.33,0h.81c.17,0,.33,0,.49,0,0-.06,0-.12,0-.18s0-.11,0-.17c0-.05,0-.1,0-.16,0-.31-.04-.58-.11-.81-.08-.23-.19-.43-.34-.6-.15-.17-.34-.31-.57-.42-.23-.11-.5-.18-.8-.23-.3-.05-.65-.07-1.02-.07-.52,0-.97.06-1.35.17-.38.11-.7.29-.95.53-.25.24-.44.56-.57.95-.13.39-.19.86-.19,1.41,0,.44.03.83.11,1.17.07.34.18.65.33.91.15.26.35.47.59.63.24.16.53.29.86.38.33.09.72.13,1.16.13.5,0,.93-.05,1.29-.14.36-.09.67-.24.91-.44.24-.2.42-.45.53-.75s.17-.65.17-1.06c0-.04,0-.08,0-.12,0-.04,0-.08,0-.12,0-.04,0-.08.01-.13-.17.01-.33.02-.49.02Z"/>
    <path class="cls-1" d="M20.33,16.95c-.17-.16-.4-.29-.69-.39-.29-.1-.64-.18-1.04-.24-.25-.03-.46-.06-.61-.11-.16-.04-.28-.09-.38-.14-.1-.05-.17-.1-.22-.15-.05-.05-.08-.11-.09-.16-.01-.06-.02-.12-.02-.18s0-.13.03-.19c.02-.06.06-.11.12-.15.06-.04.15-.07.26-.09.11-.02.25-.03.41-.03.18,0,.34,0,.46.03.12.02.22.05.29.1.07.05.13.11.16.18.04.07.05.16.05.27,0,.02,0,.05,0,.08,0,.03,0,.06,0,.08.08,0,.18,0,.31,0,.13,0,.26,0,.4,0,.12,0,.24,0,.36,0,.12,0,.24,0,.34,0,.11,0,.2,0,.27.01,0-.04,0-.08,0-.12,0-.04,0-.09,0-.13,0-.04,0-.08,0-.11,0-.26-.03-.48-.08-.68-.05-.19-.14-.35-.27-.48-.12-.13-.29-.23-.5-.31-.21-.08-.47-.14-.77-.17-.3-.03-.66-.05-1.08-.05-.49,0-.9.04-1.23.11-.34.08-.61.19-.82.34-.21.15-.37.33-.47.55-.11.22-.16.48-.16.78,0,.21.02.41.06.59.04.18.11.35.21.49.1.15.24.27.42.38.18.11.4.2.67.28.27.08.58.14.95.18.22.03.41.07.55.11.15.04.27.08.37.13.1.05.17.1.23.15.05.05.09.11.11.18.02.07.03.14.03.21s-.01.14-.04.2c-.02.06-.07.11-.15.16-.07.04-.17.08-.28.1-.12.02-.26.03-.44.03-.23,0-.42-.02-.56-.07-.14-.05-.24-.12-.3-.21-.06-.1-.09-.22-.09-.37,0-.03,0-.05,0-.07,0-.02,0-.03.01-.04-.1,0-.2,0-.32.01-.12,0-.24,0-.38,0-.19,0-.38,0-.56-.02-.19-.01-.34-.02-.47-.03-.01.04-.02.09-.02.14s0,.1,0,.15c0,.05,0,.1,0,.13,0,.23.03.44.08.62.05.18.14.34.27.47.13.13.31.24.52.34.22.09.48.16.79.2.31.04.68.06,1.12.06.39,0,.74-.02,1.05-.07.31-.05.56-.13.77-.23.21-.11.38-.23.51-.38.13-.15.23-.32.29-.52.06-.2.08-.42.08-.66,0-.29-.04-.54-.12-.76-.08-.21-.21-.4-.38-.56Z"/>
    <path class="cls-1" d="M33.72,18.29c-.1-.34-.2-.69-.3-1.04-.1-.35-.19-.7-.29-1.04-.1-.34-.18-.66-.26-.95-.08-.3-.15-.56-.21-.78-.06-.23-.11-.4-.15-.52h-3.23c-.04.12-.09.29-.15.51-.06.22-.13.48-.21.78-.08.3-.17.62-.25.96-.09.34-.18.69-.27,1.06-.09.36-.19.71-.29,1.05-.1.34-.19.65-.28.94-.09.29-.16.54-.23.76h2.08c.02-.13.05-.32.09-.54.03-.18.07-.39.12-.61.02,0,.03,0,.05,0h1.8s.04,0,.06,0c0,.05.02.09.03.14.05.23.08.43.11.59.02.17.04.3.06.41h2.26c-.08-.23-.16-.49-.24-.78-.09-.29-.18-.61-.28-.95ZM30.84,17.61c-.13,0-.27,0-.44,0-.08,0-.16,0-.24,0,.06-.26.12-.53.18-.79.07-.32.14-.63.21-.91.05-.2.1-.39.15-.56.05-.17.08-.33.12-.46,0-.03.01-.05.02-.08h.03s.01.05.02.08c.03.14.07.29.11.46.04.17.09.35.15.54.06.24.13.49.19.76.06.27.12.54.19.82.01.05.02.09.03.14-.09,0-.18,0-.27,0-.15,0-.3,0-.43,0Z"/>
    <path class="cls-1" d="M54.78,15.42h.61c.21,0,.43,0,.65,0,.22,0,.44,0,.67.01.23,0,.45,0,.67,0,0-.09,0-.21,0-.37v-.79c0-.14,0-.25,0-.33h-4.86c0,.19,0,.4,0,.62,0,.22,0,.46,0,.7,0,.25,0,.51,0,.8v2.09c0,.36,0,.69-.01.99,0,.3-.01.59-.01.86h4.87c0-.1,0-.22,0-.37v-.86c0-.15,0-.28,0-.38-.21,0-.42,0-.64,0-.22,0-.44,0-.67,0-.23,0-.45,0-.66,0h-.89s0-.03,0-.05v-.82c.13,0,.26,0,.39,0,.21,0,.42,0,.63,0s.41,0,.62,0c.21,0,.41,0,.6,0s.37,0,.55,0v-.94c0-.17,0-.3,0-.39-.18,0-.36,0-.55,0s-.39,0-.6,0c-.21,0-.41,0-.62,0-.2,0-.41,0-.63,0-.13,0-.26,0-.39,0,0-.13,0-.27,0-.41,0-.15,0-.29,0-.44h.28Z"/>
    <path class="cls-1" d="M51.35,14.84c-.16-.22-.35-.4-.59-.53-.24-.13-.52-.22-.84-.28-.32-.06-.69-.08-1.11-.08h-2.85c0,.26.01.55.02.86,0,.31,0,.64,0,1,0,.36,0,.75,0,1.18s0,.82,0,1.17c0,.35,0,.68,0,.98s0,.59,0,.87h2.82c.45,0,.84-.03,1.17-.1.33-.06.61-.18.85-.33.23-.16.43-.36.58-.6.15-.25.26-.55.32-.91.06-.36.1-.78.1-1.26,0-.45-.04-.83-.11-1.16-.07-.33-.18-.6-.34-.82ZM49.77,17.57c-.03.18-.08.33-.14.44-.06.12-.13.21-.22.27-.09.06-.19.11-.32.14-.13.03-.28.04-.44.04-.09,0-.18,0-.26,0-.08,0-.16,0-.24-.01-.06,0-.12-.01-.19-.02,0-.01,0-.03,0-.04,0-.18,0-.38,0-.6v-1.43c0-.21,0-.42,0-.63,0-.1,0-.19,0-.28.06,0,.12,0,.18,0,.17,0,.34,0,.53,0,.16,0,.3,0,.42.03.12.02.23.06.32.12.09.06.16.14.23.25.06.11.11.25.14.43.03.18.04.39.04.65s-.02.49-.05.66Z"/>
    <path class="cls-1" d="M44.9,18.29c-.1-.34-.2-.69-.3-1.04s-.19-.7-.29-1.04c-.1-.34-.18-.66-.26-.95-.08-.3-.15-.56-.21-.78-.06-.23-.11-.4-.15-.52h-3.23c-.04.12-.09.29-.15.51-.06.22-.13.48-.21.78-.08.3-.17.62-.25.96-.09.34-.18.69-.27,1.06-.09.36-.19.71-.29,1.05-.1.34-.19.65-.28.94-.09.29-.16.54-.23.76h2.08c.02-.13.05-.32.09-.54.03-.18.07-.39.12-.61.02,0,.03,0,.05,0h1.8s.04,0,.06,0c0,.05.02.09.03.14.05.23.08.43.11.59.02.17.04.3.06.41h2.26c-.08-.23-.16-.49-.24-.78-.09-.29-.18-.61-.28-.95ZM42.01,17.61c-.13,0-.28,0-.44,0-.08,0-.16,0-.24,0,.06-.26.12-.53.18-.79.07-.32.14-.63.21-.91.05-.2.1-.39.15-.56.05-.17.09-.33.12-.46,0-.03.01-.05.02-.08h.03s.01.05.02.08c.03.14.07.29.11.46.04.17.09.35.15.54.06.24.13.49.19.76.06.27.12.54.19.82.01.05.02.09.03.14-.09,0-.18,0-.27,0-.15,0-.3,0-.43,0Z"/>
    <path class="cls-1" d="M25.21,7.58c-.27-.24-.61-.42-1-.53-.39-.11-.83-.17-1.32-.17-.39,0-.75.03-1.08.1-.32.07-.61.18-.87.34-.26.16-.48.35-.65.59-.18.24-.31.52-.4.86-.09.33-.14.72-.14,1.16s.04.83.13,1.18.21.66.38.91c.17.26.38.47.62.64.25.17.53.3.87.38.33.08.71.12,1.12.12s.8-.04,1.13-.12c.33-.08.62-.21.88-.38.25-.17.47-.39.64-.64.18-.26.3-.56.39-.91.08-.35.13-.75.13-1.18,0-.55-.07-1.02-.21-1.4-.14-.39-.35-.7-.62-.94ZM23.92,10.65c-.05.2-.12.37-.21.5-.09.13-.2.23-.34.3-.14.06-.3.1-.49.1-.18,0-.33-.03-.46-.09-.13-.06-.25-.16-.34-.3-.1-.13-.17-.3-.21-.5-.05-.2-.07-.43-.07-.71s.02-.5.07-.7.12-.35.21-.48c.09-.12.21-.21.34-.26.13-.05.29-.08.46-.08s.34.03.49.08c.14.05.25.14.34.27.09.13.16.29.21.48.05.19.07.42.07.69s-.02.5-.07.7Z"/>
    <path class="cls-1" d="M32.62,7.54c0-.21,0-.39.02-.55h-1.75c0,.1.01.22.02.36.01.14.02.28.02.44,0,.16,0,.32,0,.51s0,.36,0,.54c0,.18,0,.36,0,.55s0,.39.01.59c0,.21.02.43.04.66,0,.01,0,.02,0,.03h-.02c-.06-.18-.12-.36-.19-.54-.07-.18-.14-.35-.22-.51-.1-.16-.2-.33-.3-.51-.1-.18-.21-.36-.31-.53-.1-.18-.2-.35-.29-.51-.09-.16-.18-.31-.26-.46-.08-.15-.15-.27-.21-.38s-.1-.19-.13-.25h-2.28c.01.26.02.55.02.86,0,.31,0,.64,0,.99v1.18c0,.65,0,1.21,0,1.69,0,.48,0,.93-.02,1.34h1.79c0-.08,0-.19-.01-.34,0-.14,0-.31,0-.51s0-.42,0-.67c0-.25,0-.53,0-.83-.01-.23-.02-.46-.03-.69-.01-.23-.03-.47-.05-.73,0-.02,0-.03,0-.05h.04c.07.19.14.39.22.58.09.22.18.43.27.64.12.18.25.37.38.57.13.21.25.4.36.58.11.18.22.37.33.55.11.18.2.34.29.49.08.15.15.28.2.39h2.07c-.02-.39-.02-.83-.02-1.31v-1.73c0-.32,0-.64,0-.94,0-.3,0-.58,0-.84,0-.26,0-.49.01-.7Z"/>
    <path class="cls-1" d="M17.03,10.4c0,.25,0,.49,0,.71,0,.22,0,.44-.01.65,0,.21-.01.42-.02.63,0,.21-.01.43-.02.66h1.92c-.01-.44-.02-.89-.02-1.37,0-.47,0-1.03,0-1.67s0-1.23,0-1.71c0-.48.01-.92.02-1.31h-2.31c-.05.13-.11.3-.17.49-.06.19-.13.39-.21.6-.08.21-.16.44-.24.68s-.17.48-.26.73c-.03.11-.07.25-.11.4-.04.16-.09.31-.13.47,0,.03-.01.05-.02.08h-.03s-.01-.05-.02-.07c-.05-.16-.09-.32-.13-.48-.04-.16-.08-.29-.13-.4-.09-.26-.17-.51-.25-.74-.08-.24-.16-.46-.23-.68-.07-.21-.14-.41-.2-.6-.06-.19-.12-.35-.17-.48h-2.08l-.38.79.25,1.71-1.19,2.37,1.01,1.2h1.53c0-.23-.01-.45-.02-.66,0-.21,0-.42-.01-.64,0-.22,0-.44,0-.66v-.7c0-.17-.01-.34-.02-.52,0-.18-.02-.35-.03-.53,0-.09,0-.17-.01-.26h.06c.02.07.04.14.06.22.05.19.1.37.15.53.05.16.11.32.15.46.03.09.07.22.13.38.06.16.13.35.21.56.08.21.16.43.24.65.09.22.17.43.25.63.08.2.15.38.21.53h.86c.05-.14.12-.31.2-.5.08-.19.16-.39.24-.61.08-.21.16-.42.23-.62.08-.2.14-.39.2-.55.06-.17.11-.31.16-.42.04-.13.08-.28.13-.44.05-.17.1-.34.15-.53.03-.09.05-.19.08-.28h.05c-.01.21-.02.41-.03.6-.01.24-.02.47-.02.69Z"/>
    <path class="cls-1" d="M61.22,8.46h.61c.21,0,.43,0,.65,0,.22,0,.44,0,.67.01.23,0,.45,0,.67,0,0-.09,0-.21,0-.37v-.79c0-.14,0-.25,0-.33h-4.86c0,.19,0,.4,0,.62,0,.22,0,.46,0,.7,0,.25,0,.51,0,.8v2.09c0,.36,0,.69-.01.99,0,.3-.01.59-.01.86h4.87c0-.1,0-.22,0-.37v-.86c0-.15,0-.28,0-.38-.21,0-.42,0-.64,0-.22,0-.44,0-.67,0-.23,0-.45,0-.66,0h-.89s0-.03,0-.05v-.82c.13,0,.26,0,.39,0,.21,0,.42,0,.63,0s.41,0,.62,0c.21,0,.41,0,.6,0s.37,0,.55,0v-.94c0-.17,0-.3,0-.39-.18,0-.36,0-.55,0-.19,0-.39,0-.6,0-.21,0-.41,0-.62,0-.2,0-.41,0-.63,0-.13,0-.26,0-.39,0,0-.13,0-.27,0-.41,0-.15,0-.29,0-.44h.28Z"/>
    <path class="cls-1" d="M38.25,7.39c0-.16,0-.29,0-.4h-4.84v1.77c.44,0,.87-.01,1.29-.02.04,0,.07,0,.11,0v.22c0,.38,0,.76,0,1.12,0,.36,0,.71,0,1.03s0,.61,0,.87c0,.26,0,.48-.01.67,0,.19,0,.33-.02.41.1,0,.22,0,.34-.01.12,0,.25,0,.38,0,.13,0,.25,0,.36,0,.1,0,.22,0,.34,0,.13,0,.25,0,.38,0,.13,0,.24,0,.34.01,0-.08,0-.22-.01-.41,0-.19,0-.42,0-.68s0-.55,0-.87c0-.32,0-.66-.01-1.02,0-.36,0-.73,0-1.11v-.24c.17,0,.35,0,.53,0,.29,0,.57.01.87.02,0-.13,0-.28,0-.44v-.93Z"/>
    <path class="cls-1" d="M50.53,7.59c-.14-.16-.33-.29-.55-.4-.23-.11-.5-.18-.81-.23-.31-.05-.67-.08-1.06-.08-.53,0-1,.06-1.39.19-.39.13-.71.32-.97.57-.26.25-.45.57-.58.95-.13.38-.2.84-.2,1.37,0,.52.07.98.2,1.38.13.4.32.74.57,1.01.25.27.57.47.97.61.39.13.85.2,1.37.2s.94-.05,1.29-.14c.35-.09.63-.23.85-.42.22-.19.38-.43.49-.7.11-.28.18-.6.21-.97.03-.37.04-.79.02-1.25-.21,0-.4,0-.58,0-.18,0-.36,0-.54,0h-.46c-.19,0-.42,0-.66,0-.25,0-.5,0-.76-.02v1.18h.31c.11,0,.22,0,.34,0,.12,0,.24,0,.36,0,.04,0,.08,0,.12,0,0,0,0,.01,0,.02-.01.21-.05.38-.12.51-.07.13-.16.22-.29.28-.12.06-.29.09-.49.09s-.39-.03-.53-.11c-.15-.07-.26-.18-.36-.32-.09-.14-.16-.32-.2-.54-.04-.22-.06-.48-.06-.8s.02-.59.07-.81c.05-.22.11-.4.19-.52.08-.12.19-.21.33-.27.13-.06.3-.08.5-.08.19,0,.35.03.48.08.13.05.23.13.3.23.07.11.11.24.11.39v.07s0,.04,0,.06c0,.02,0,.05,0,.07.12,0,.27,0,.43-.01.16,0,.34,0,.53,0s.37,0,.54,0c.17,0,.33,0,.46,0,.01-.05.02-.11.02-.16v-.18c0-.26-.04-.49-.11-.7-.07-.21-.18-.39-.32-.55Z"/>
    <path class="cls-1" d="M57.72,7.54c0-.21,0-.39.02-.55h-1.75c0,.1.01.22.02.36.01.14.02.28.02.44,0,.16,0,.32,0,.51s0,.36,0,.54c0,.18,0,.36,0,.55s0,.39.01.59c0,.21.02.43.04.66,0,.01,0,.02,0,.03h-.02c-.06-.18-.12-.36-.19-.54-.07-.18-.14-.35-.22-.51-.1-.16-.2-.33-.3-.51-.1-.18-.2-.36-.31-.53-.1-.18-.2-.35-.29-.51-.09-.16-.18-.31-.26-.46-.08-.15-.15-.27-.21-.38-.06-.11-.1-.19-.13-.25h-2.28c.01.26.02.55.02.86,0,.31,0,.64,0,.99v1.18c0,.65,0,1.21,0,1.69,0,.48,0,.93-.02,1.34h1.79c0-.08,0-.19-.01-.34s0-.31,0-.51,0-.42,0-.67c0-.25,0-.53,0-.83-.01-.23-.02-.46-.03-.69-.01-.23-.03-.47-.05-.73,0-.02,0-.03,0-.05h.04c.07.19.14.39.22.58.09.22.18.43.27.64.12.18.25.37.38.57.13.21.25.4.36.58.11.18.22.37.33.55.11.18.2.34.29.49.08.15.15.28.2.39h2.07c-.02-.39-.02-.83-.02-1.31v-1.73c0-.32,0-.64,0-.94,0-.3,0-.58,0-.84,0-.26,0-.49.01-.7Z"/>
    <path class="cls-1" d="M44.29,11.33c-.1-.34-.2-.69-.3-1.04-.1-.35-.19-.7-.29-1.04-.1-.34-.18-.66-.26-.95-.08-.3-.15-.56-.21-.78-.06-.23-.11-.4-.15-.52h-3.23c-.04.12-.09.29-.15.51-.06.22-.13.48-.21.78-.08.3-.17.62-.25.96-.09.34-.18.69-.27,1.06-.09.36-.19.71-.29,1.05-.1.34-.19.65-.28.94-.09.29-.16.54-.23.76h2.08c.02-.13.05-.32.09-.54.03-.18.07-.39.12-.61.02,0,.03,0,.05,0h1.8s.04,0,.06,0c0,.05.02.09.03.14.05.23.08.43.11.59.02.17.04.3.06.41h2.26c-.08-.23-.16-.49-.24-.78-.09-.29-.18-.61-.28-.95ZM41.4,10.65c-.13,0-.28,0-.44,0-.08,0-.16,0-.24,0,.06-.26.12-.53.18-.79.07-.32.14-.63.21-.91.05-.2.1-.39.15-.56.05-.17.08-.33.12-.46,0-.03.01-.05.02-.08h.03s.01.05.02.08c.03.14.07.29.11.46.04.17.09.35.15.54.06.24.13.49.19.76.06.27.12.54.19.82.01.05.02.09.03.14-.09,0-.18,0-.27,0-.15,0-.3,0-.43,0Z"/>
    <path class="cls-1" d="M19.66.48c-.04.19-.08.41-.12.66-.05.25-.1.52-.15.8-.06.28-.11.56-.17.85-.06.29-.11.57-.16.84-.04.18-.08.36-.12.54-.04.18-.07.34-.11.49,0,.02,0,.05-.01.07h-.02s0-.04-.01-.06c-.04-.16-.07-.33-.11-.51-.04-.18-.08-.35-.11-.54-.05-.22-.1-.44-.15-.68-.05-.24-.1-.47-.14-.71-.05-.23-.09-.46-.13-.68-.04-.22-.08-.42-.11-.62s-.07-.37-.1-.53c-.03-.16-.04-.29-.05-.39h-2.22c.08.2.16.44.23.73.07.29.15.6.24.93.09.34.18.68.27,1.04.09.35.18.7.26,1.05.08.34.16.67.23.97.07.3.13.57.19.8.05.23.1.42.14.55.13,0,.32,0,.57,0h2.08c.16,0,.3,0,.43,0,.03-.15.08-.37.15-.65.07-.29.15-.61.24-.99.09-.37.18-.76.28-1.17.1-.41.2-.81.3-1.21.1-.4.2-.78.3-1.14.09-.36.18-.66.25-.91h-2.08c-.02.11-.04.26-.08.45Z"/>
    <path class="cls-1" d="M15.04,4.73c0-.24,0-.49,0-.77v-1.8c0-.28,0-.54,0-.78,0-.24,0-.47,0-.69,0-.22,0-.44,0-.65h-.6l-1.11.82.08.68-.97.63.78,2.02-.14,1.08-.49.83h2.45c0-.22,0-.44,0-.67,0-.23,0-.46,0-.7Z"/>
    <path class="cls-1" d="M28.22,5.32c-.04-.16-.08-.32-.11-.48-.07-.26-.15-.46-.25-.61-.1-.15-.23-.27-.38-.35-.16-.08-.36-.14-.61-.17-.04,0-.08,0-.12-.01v-.04c.08-.01.17-.03.24-.05.29-.07.51-.17.68-.32.17-.15.3-.34.38-.57.08-.24.12-.52.12-.85s-.05-.59-.16-.82c-.11-.23-.26-.42-.46-.57-.2-.15-.44-.26-.72-.33-.28-.07-.61-.11-.99-.11h-3.28c0,.44,0,.89.01,1.36,0,.47,0,1.03,0,1.67,0,.43,0,.82,0,1.17,0,.35,0,.67,0,.97,0,.3,0,.6,0,.89h2.03c-.03-.27-.05-.6-.06-.99,0-.29-.02-.6-.02-.93.05,0,.1,0,.14,0,.07,0,.14,0,.2,0,.06,0,.12,0,.17,0,.05,0,.1,0,.16,0h.17c.1,0,.18,0,.26.02.08.01.14.05.19.1.05.05.1.12.13.21.04.09.08.2.12.35.04.14.08.31.11.5.04.22.08.38.12.49.04.11.08.17.14.21.06.03.13.05.23.05h1.8c-.03-.09-.06-.2-.09-.34-.04-.13-.07-.28-.11-.44ZM25.89,2.88c-.11.06-.26.09-.44.09-.12,0-.24,0-.35,0s-.21,0-.31,0c-.1,0-.19,0-.27-.01-.02,0-.04,0-.05,0,0-.18,0-.37,0-.55,0-.32,0-.65,0-.98,0,0,.02,0,.03,0,.08,0,.15,0,.24-.02.08-.01.16-.02.24-.02s.15,0,.21,0c.07,0,.12,0,.16,0,.15,0,.28.01.39.04.11.03.2.07.27.13.07.05.13.13.17.24.04.11.06.24.06.39,0,.18-.03.33-.09.45-.06.12-.15.21-.26.27Z"/>
    <path class="cls-1" d="M32.25.03c-.02.06-.04.15-.07.26-.03.11-.07.24-.11.39-.04.15-.09.3-.14.46-.05.15-.1.31-.15.48-.05.17-.09.33-.14.48-.05.19-.1.37-.14.53-.04.16-.08.32-.11.46,0,.02,0,.03-.01.05h-.07s-.01-.04-.02-.06c-.04-.15-.08-.31-.12-.47-.05-.16-.09-.33-.13-.52-.04-.16-.09-.32-.13-.48-.05-.16-.09-.32-.14-.47-.05-.15-.09-.3-.12-.44-.04-.14-.07-.27-.11-.38-.04-.11-.06-.2-.08-.27h-2.21c.09.16.2.36.31.61.12.25.24.52.38.81.14.29.27.59.4.89.13.3.25.59.36.87.11.28.2.52.29.74.05.12.08.22.12.3,0,.16,0,.31,0,.45,0,.23-.01.43-.02.61,0,.18,0,.34-.01.48,0,.14,0,.24,0,.3.1,0,.21,0,.35-.01.14,0,.28,0,.42,0,.14,0,.27,0,.39,0s.25,0,.39,0c.14,0,.27,0,.4,0,.13,0,.25,0,.36.01,0-.06,0-.17,0-.3,0-.14,0-.3,0-.47,0-.18,0-.38-.01-.62,0-.15,0-.31,0-.47.03-.08.07-.18.12-.29.09-.21.19-.45.3-.72.11-.27.23-.55.36-.86.13-.3.26-.6.39-.9.13-.29.25-.57.38-.82.12-.25.22-.46.3-.63h-1.96Z"/>
    <path class="cls-1" d="M12.53,15.42c.21,0,.43,0,.65,0,.22,0,.44,0,.67.01.23,0,.45,0,.67,0,0-.09,0-.21,0-.37v-.79c0-.14,0-.25,0-.33h-3.33l-1.33,1.45.16.97-1.15.48-.54.79.7,1.42-.48.95h5.99c0-.1,0-.22,0-.37v-.86c0-.15,0-.28,0-.38-.2,0-.42,0-.64,0-.22,0-.44,0-.67,0-.23,0-.45,0-.66,0h-.89s0-.03,0-.05v-.82c.13,0,.26,0,.39,0,.21,0,.42,0,.63,0s.42,0,.62,0c.21,0,.41,0,.6,0s.37,0,.55,0v-.94c0-.17,0-.3,0-.39-.18,0-.36,0-.55,0-.19,0-.39,0-.6,0-.21,0-.41,0-.62,0-.2,0-.41,0-.63,0-.13,0-.26,0-.39,0,0-.13,0-.27,0-.41,0-.15,0-.29,0-.44h.88Z"/>
    <path class="cls-1" d="M38.55,18.2c-.11,0-.24,0-.41,0-.2,0-.41,0-.61,0-.2,0-.39,0-.57,0h-.17s0-.05,0-.07c0-.19,0-.38,0-.58,0-.2,0-.4,0-.59,0-.34,0-.67,0-.98,0-.31,0-.6,0-.87,0-.27,0-.51,0-.71,0-.2.01-.36.02-.47h-2.08c0,.19,0,.44,0,.74,0,.3,0,.64,0,1.02,0,.39,0,.81,0,1.27,0,.32,0,.64,0,.95,0,.31,0,.6,0,.87,0,.26,0,.5,0,.71,0,.21,0,.38,0,.51h3.24l.58-1.82Z"/>
  </g>
  <g>
    <path class="cls-1" d="M4.94,7.06s0,1.11-.5,2.31-.88,1.68-1.29,2.15c0,0,.57.16,1.31-.35.79-.54,1.16-1.47,1.23-1.51,0,0,.04,1.44-.71,2.39s-1.96,1.06-1.96,1.06c0,0,.04.64.99,3.24.74,2.03,1.8,3.66,1.8,3.66,0,0-1.04-.45-2.29-2.16-.76-1.03-1.33-2.13-1.33-2.13,0,0-.15-.02-.44,1.45-.23,1.2-.29,2.84-.29,2.84,0,0-1.42-2-.59-7.04.28-1.73,1.26-1.91,2.57-3.56,1.12-1.41,1.52-2.36,1.52-2.36Z"/>
    <path class="cls-1" d="M11.82,0s-.18,1.1-1.32,2.53c-.83,1.04-2,1.7-2,1.7,0,0,.46.46,1.47.21.88-.22,1.77-1.51,1.77-1.51,0,0-.16,1.87-1.59,2.54-1.12.52-2.39-.18-2.41-.13-.2.47-.19.98-.05,1.38,0,0,1.13-.9,2.39-.28,1.06.52,1.1,2.49.34,3.71,0,0-.02-2.2-.97-2.37-.73-.13-1.34.63-1.45,1.67s.06,2.28,1.67,4.95c0,0-2.09-1.13-3.3-4.68-.75-2.22-.51-4.59.19-5.5.76-.99,1.56-.91,3.09-2.07,1.17-.88,2.15-2.12,2.15-2.12Z"/>
    <circle class="cls-1" cx=".91" cy="10.15" r=".91"/>
    <circle class="cls-1" cx="6.65" cy="2.31" r=".91"/>
  </g>
</svg>