<?xml version="1.0" encoding="UTF-8"?>
<svg id="Calque_1" data-name="Calque 1" xmlns="http://www.w3.org/2000/svg" viewBox="0 0 187.51 59.12">
  <defs>
    <style>
      .cls-1 {
        fill: #e62a28;
      }

      .cls-1, .cls-2 {
        stroke-width: 0px;
      }

      .cls-2 {
        fill: #818c58;
      }
    </style>
  </defs>
  <g>
    <path class="cls-2" d="M79.08,51.09h-2.43c-.31,0-.63,0-.96-.01-.33,0-.65-.02-.95-.04v.59c0,.55-.09,1.03-.27,1.44-.18.4-.46.71-.84.93-.38.21-.89.32-1.52.32-.41,0-.78-.05-1.12-.15-.33-.1-.62-.27-.86-.5-.24-.23-.44-.53-.61-.89-.17-.36-.29-.8-.36-1.32-.07-.51-.11-1.13-.11-1.84s.03-1.31.1-1.81c.06-.49.18-.91.34-1.25.17-.34.36-.62.59-.83.23-.21.51-.35.83-.42.32-.06.68-.09,1.06-.09.6,0,1.11.08,1.52.23.41.15.72.42.91.82.2.4.3.94.3,1.64v.31c0,.06,0,.13.02.19.3,0,.61,0,.91-.01.31,0,.63-.01.96-.01h2.38c.49,0,.97,0,1.43.02.02-.17.02-.35.02-.52s0-.34.01-.49c0-.15.01-.3.01-.46,0-.92-.11-1.71-.33-2.39-.22-.67-.55-1.26-1-1.76-.44-.5-1-.91-1.68-1.22-.67-.32-1.46-.54-2.35-.68-.89-.13-1.9-.2-3.01-.2-1.52,0-2.84.16-3.97.49-1.13.32-2.06.84-2.8,1.56-.74.71-1.31,1.64-1.69,2.79-.38,1.15-.57,2.53-.57,4.15,0,1.28.1,2.43.31,3.45.21,1.01.53,1.9.97,2.66.44.76,1.02,1.38,1.72,1.85.7.48,1.55.84,2.53,1.1.98.26,2.11.39,3.4.39,1.46,0,2.72-.14,3.79-.42,1.07-.28,1.96-.71,2.66-1.29.7-.59,1.23-1.32,1.57-2.2s.51-1.91.51-3.1c0-.11,0-.23-.01-.34,0-.12-.02-.24-.02-.36,0-.12,0-.24.04-.37-.49.03-.97.05-1.45.05Z"/>
    <path class="cls-2" d="M59.74,49.8c-.5-.47-1.18-.85-2.03-1.14-.86-.29-1.88-.53-3.07-.7-.74-.08-1.35-.18-1.81-.31-.46-.13-.84-.26-1.13-.4-.29-.14-.51-.29-.65-.44-.14-.15-.23-.31-.27-.48-.04-.17-.06-.34-.06-.53s.03-.37.08-.55c.06-.17.17-.32.36-.43.18-.11.44-.2.76-.26.32-.06.72-.1,1.2-.1.54,0,.99.03,1.34.08.36.06.64.15.86.29.21.14.37.31.48.52.1.21.15.48.15.8,0,.06,0,.14-.02.24-.02.1-.02.17,0,.24.22,0,.52,0,.9-.01.38,0,.77-.01,1.16-.01.35,0,.7,0,1.06.01.36,0,.69.02,1.01.02.32,0,.59.02.81.04,0-.11,0-.23.01-.36,0-.13.02-.25.02-.38,0-.13.01-.23.01-.31,0-.76-.08-1.42-.24-1.98-.16-.56-.42-1.03-.78-1.4-.36-.37-.86-.68-1.47-.91-.62-.24-1.37-.4-2.26-.5-.89-.1-1.95-.14-3.18-.14-1.43,0-2.63.11-3.62.33-.99.22-1.79.55-2.41.99-.62.44-1.08.97-1.39,1.62-.31.64-.46,1.41-.46,2.29,0,.62.06,1.2.18,1.73.12.54.32,1.02.62,1.45.29.43.7.8,1.22,1.13.52.32,1.18.6,1.96.83.78.23,1.71.41,2.79.53.65.1,1.19.2,1.63.31.44.11.8.23,1.08.37.29.14.51.28.67.44.16.16.27.34.32.53.06.2.08.4.08.61s-.04.4-.11.58c-.07.18-.21.34-.43.46-.21.13-.49.22-.83.29-.34.06-.77.09-1.29.09-.68,0-1.23-.07-1.65-.2-.42-.13-.72-.34-.89-.63-.17-.29-.26-.65-.26-1.09,0-.08,0-.15.01-.2,0-.05.02-.1.04-.13-.29.02-.6.03-.94.04-.34,0-.71.01-1.1.01-.55,0-1.1-.02-1.65-.06-.55-.04-1.01-.07-1.39-.08-.03.13-.05.26-.05.4s0,.29-.01.44c0,.15-.01.28-.01.39,0,.68.08,1.29.23,1.83.15.54.42,1,.81,1.39.39.39.9.72,1.53.99.63.27,1.41.46,2.32.58.91.12,2.01.18,3.29.18,1.16,0,2.19-.07,3.09-.21.9-.14,1.66-.37,2.27-.68.61-.31,1.11-.68,1.51-1.12.4-.44.68-.94.84-1.52.17-.58.25-1.22.25-1.94,0-.85-.12-1.6-.36-2.22-.24-.63-.61-1.17-1.1-1.64Z"/>
    <path class="cls-2" d="M99.1,53.73c-.3-1-.59-2.02-.88-3.05-.29-1.04-.57-2.06-.86-3.05-.29-1-.54-1.93-.76-2.8-.22-.87-.43-1.64-.62-2.3-.19-.67-.33-1.17-.43-1.52h-9.5c-.11.35-.25.85-.43,1.51-.17.66-.38,1.42-.62,2.29-.24.87-.49,1.81-.75,2.82-.26,1.01-.53,2.04-.8,3.1-.27,1.06-.55,2.09-.84,3.09-.29,1-.57,1.92-.82,2.77-.25.85-.48,1.6-.69,2.25h6.11c.06-.4.15-.93.27-1.59.1-.54.21-1.13.34-1.78.05,0,.1,0,.15,0h5.3c.06,0,.12,0,.17,0,.03.14.06.28.09.41.14.67.25,1.26.31,1.75.06.49.12.9.17,1.21h6.63c-.22-.67-.46-1.43-.71-2.29-.25-.86-.53-1.79-.83-2.79ZM90.61,51.76c-.38,0-.81,0-1.28-.02-.23,0-.46-.01-.7-.01.17-.77.35-1.55.52-2.31.21-.95.42-1.84.63-2.66.16-.59.3-1.13.44-1.64.13-.51.25-.96.34-1.37.02-.08.03-.15.05-.23h.08c.02.07.04.15.05.23.09.4.19.86.32,1.37.13.51.27,1.04.43,1.59.19.7.37,1.44.55,2.23.17.79.36,1.59.55,2.4.03.14.06.27.09.41-.28,0-.54,0-.79,0-.45,0-.88.01-1.27.01Z"/>
    <path class="cls-2" d="M160.96,45.32h1.78c.63,0,1.26,0,1.9.02.64.02,1.29.03,1.96.04.67,0,1.32,0,1.97-.01-.02-.27-.02-.63-.02-1.08v-2.33c0-.4,0-.72.02-.96h-14.28c0,.57,0,1.18.01,1.83,0,.65.02,1.34.02,2.07,0,.73.01,1.51.01,2.34v6.15c0,1.05-.01,2.02-.04,2.9-.02.88-.04,1.72-.04,2.53h14.3c-.02-.29-.02-.65-.02-1.08v-2.52c0-.45,0-.82.02-1.1-.6-.02-1.23-.02-1.88-.01-.65,0-1.31.02-1.97.02-.67,0-1.31.01-1.94.01h-2.6s0-.09,0-.14v-2.42c.38,0,.76,0,1.14,0,.62,0,1.23.01,1.84.01s1.22,0,1.83.02c.61.02,1.2.02,1.76.02s1.1,0,1.6.02v-2.77c0-.5,0-.88.02-1.15-.52,0-1.07,0-1.63.02s-1.15.02-1.76.01c-.61,0-1.22,0-1.82,0-.6,0-1.22.02-1.84.02-.39,0-.77,0-1.15,0,0-.38-.01-.79-.02-1.21-.01-.44-.02-.86-.01-1.28h.81Z"/>
    <path class="cls-2" d="M150.89,43.61c-.46-.65-1.04-1.16-1.73-1.54-.7-.38-1.52-.65-2.47-.82-.95-.17-2.04-.25-3.26-.25h-8.39c.02.78.03,1.62.05,2.52.02.9.02,1.88.01,2.93,0,1.05-.01,2.21-.01,3.48s0,2.42-.01,3.45c0,1.03-.01,1.99-.01,2.88s0,1.74-.02,2.57h8.29c1.31,0,2.46-.1,3.43-.29.97-.19,1.81-.51,2.49-.97.69-.46,1.25-1.05,1.7-1.77.44-.72.76-1.61.95-2.66.19-1.05.29-2.28.29-3.69,0-1.31-.1-2.45-.31-3.41-.21-.96-.54-1.76-1-2.41ZM146.25,51.62c-.09.52-.23.96-.4,1.31-.17.35-.39.61-.64.8-.25.18-.57.32-.95.4-.38.09-.81.13-1.28.13-.27,0-.53,0-.77-.01-.25,0-.48-.02-.71-.04-.18-.01-.36-.03-.54-.05,0-.04,0-.08,0-.11,0-.52-.01-1.11-.01-1.77v-4.21c0-.63,0-1.25.01-1.87,0-.28,0-.56.01-.83.17,0,.35-.01.52-.01.49,0,1.01-.01,1.54-.01.48,0,.89.03,1.25.08.36.06.67.17.93.34.26.17.48.42.67.74.18.32.32.74.4,1.26.09.52.13,1.16.13,1.9s-.05,1.43-.14,1.95Z"/>
    <path class="cls-2" d="M131.92,53.73c-.3-1-.59-2.02-.88-3.05s-.57-2.06-.86-3.05c-.29-1-.54-1.93-.76-2.8-.22-.87-.43-1.64-.62-2.3-.19-.67-.33-1.17-.43-1.52h-9.5c-.11.35-.25.85-.43,1.51-.17.66-.38,1.42-.62,2.29-.24.87-.49,1.81-.75,2.82-.26,1.01-.53,2.04-.8,3.1-.27,1.06-.55,2.09-.84,3.09-.29,1-.57,1.92-.82,2.77-.25.85-.48,1.6-.69,2.25h6.11c.06-.4.15-.93.27-1.59.1-.54.21-1.13.34-1.78.05,0,.1,0,.14,0h5.3c.06,0,.12,0,.17,0,.03.14.06.28.09.41.14.67.25,1.26.31,1.75.06.49.12.9.17,1.21h6.63c-.22-.67-.46-1.43-.71-2.29-.25-.86-.53-1.79-.83-2.79ZM123.44,51.76c-.38,0-.81,0-1.28-.02-.23,0-.46-.01-.7-.01.17-.77.35-1.55.52-2.31.21-.95.42-1.84.63-2.66.16-.59.3-1.13.44-1.64.13-.51.25-.96.34-1.37.02-.08.03-.15.05-.23h.08c.02.07.04.15.05.23.09.4.19.86.32,1.37.13.51.27,1.04.43,1.59.19.7.37,1.44.55,2.23.17.79.36,1.59.55,2.4.03.14.06.27.09.41-.27,0-.54,0-.79,0-.45,0-.88.01-1.27.01Z"/>
    <path class="cls-2" d="M74.09,22.27c-.81-.7-1.79-1.22-2.93-1.56-1.15-.33-2.44-.5-3.88-.5-1.16,0-2.21.1-3.16.3-.95.2-1.81.53-2.57.99-.76.46-1.4,1.04-1.91,1.73-.51.7-.91,1.54-1.18,2.52-.27.98-.4,2.11-.4,3.4s.13,2.44.38,3.48.63,1.93,1.13,2.68c.5.75,1.11,1.38,1.83,1.89.72.51,1.57.88,2.55,1.12.98.24,2.08.36,3.3.36s2.34-.12,3.31-.36c.97-.24,1.83-.61,2.58-1.12.74-.51,1.37-1.14,1.89-1.89.51-.75.89-1.65,1.14-2.68.25-1.04.37-2.2.37-3.48,0-1.62-.21-2.99-.62-4.12-.41-1.13-1.02-2.05-1.83-2.76ZM70.29,31.28c-.14.59-.34,1.07-.61,1.46-.26.39-.59.68-1,.87-.4.19-.88.29-1.44.29-.52,0-.98-.09-1.37-.27-.39-.18-.72-.47-1.01-.87-.29-.4-.5-.88-.63-1.46-.14-.58-.2-1.27-.2-2.08s.07-1.47.21-2.04.35-1.04.63-1.4c.28-.36.61-.62,1-.77.39-.15.84-.23,1.37-.23s1.01.08,1.43.23c.41.15.75.41,1.01.78.26.37.46.84.61,1.41.14.57.21,1.24.21,2.02s-.07,1.48-.21,2.07Z"/>
    <path class="cls-2" d="M95.85,22.15c0-.63.03-1.16.06-1.6h-5.16c.02.3.04.65.07,1.06.03.4.06.84.07,1.29.02.46.02.95.02,1.48s0,1.06.02,1.59c.02.53.02,1.07.02,1.6s.01,1.14.04,1.75c.02.61.06,1.26.12,1.94,0,.03,0,.06,0,.09h-.05c-.18-.53-.36-1.06-.56-1.57-.21-.53-.42-1.03-.64-1.49-.28-.48-.58-.97-.88-1.5-.3-.52-.6-1.05-.9-1.57-.3-.52-.59-1.02-.85-1.49-.27-.47-.53-.91-.77-1.34-.25-.43-.46-.8-.63-1.1s-.3-.56-.38-.75h-6.7c.03.78.05,1.62.06,2.52,0,.9.01,1.88.01,2.92v3.47c0,1.9,0,3.56-.01,4.98,0,1.42-.03,2.73-.06,3.93h5.25c-.02-.24-.03-.57-.04-.99,0-.42-.01-.91-.01-1.49s0-1.22-.01-1.96c0-.74-.01-1.55-.01-2.44-.03-.67-.06-1.34-.09-2.02-.03-.68-.08-1.39-.14-2.14,0-.05,0-.1-.01-.15l.11-.02c.19.58.41,1.15.65,1.73.26.63.53,1.26.8,1.88.36.52.73,1.09,1.1,1.69.37.6.72,1.17,1.06,1.71.33.54.66,1.07.97,1.6.32.53.6,1.01.84,1.44.25.43.44.81.58,1.14h6.08c-.05-1.16-.07-2.44-.07-3.85v-5.08c0-.95,0-1.87-.01-2.76,0-.89,0-1.71.01-2.46.02-.75.03-1.44.04-2.07Z"/>
    <path class="cls-2" d="M50.05,30.55c0,.75,0,1.44-.01,2.09,0,.65-.02,1.29-.04,1.91-.02.63-.03,1.25-.05,1.87-.02.62-.04,1.27-.07,1.95h5.65c-.03-1.28-.06-2.62-.07-4.02-.02-1.39-.02-3.03-.02-4.92s0-3.62.02-5.02c.02-1.4.03-2.69.05-3.86h-6.8c-.14.4-.31.87-.5,1.43-.19.55-.4,1.14-.62,1.77-.22.63-.46,1.29-.71,2s-.51,1.42-.76,2.15c-.09.33-.21.73-.33,1.19-.13.46-.25.92-.38,1.39-.02.08-.04.15-.06.23h-.08c-.02-.07-.04-.14-.06-.21-.14-.48-.26-.94-.38-1.4-.12-.46-.24-.85-.37-1.19-.25-.76-.5-1.49-.75-2.19-.25-.7-.47-1.36-.68-1.98-.21-.63-.4-1.21-.58-1.76-.18-.55-.34-1.02-.49-1.41h-6.12l-1.13,2.31.73,5.01-3.51,6.95,2.98,3.54h4.5c-.02-.68-.03-1.33-.05-1.95-.02-.62-.03-1.25-.04-1.89,0-.64-.01-1.29-.01-1.94v-2.07c-.02-.49-.04-1-.06-1.52-.02-.52-.05-1.04-.08-1.56-.02-.25-.03-.5-.04-.75l.17-.03c.06.22.12.45.18.69.14.56.29,1.09.45,1.57.16.48.31.93.45,1.34.08.27.21.65.39,1.13.18.48.38,1.03.61,1.65.22.62.46,1.25.71,1.9.25.65.5,1.27.75,1.87.25.59.45,1.11.61,1.56h2.52c.16-.41.35-.9.58-1.46.23-.56.46-1.16.7-1.78.24-.63.47-1.24.69-1.83.22-.59.42-1.14.58-1.63.17-.49.32-.9.46-1.24.11-.38.24-.82.38-1.31.14-.49.29-1.01.44-1.54.08-.27.15-.55.23-.82l.15.02c-.03.59-.06,1.17-.1,1.75-.04.71-.06,1.39-.06,2.02Z"/>
    <path class="cls-2" d="M179.89,24.87h1.78c.63,0,1.26,0,1.9.02.64.02,1.29.03,1.96.04.67,0,1.32,0,1.97-.01-.02-.27-.02-.63-.02-1.08v-2.33c0-.4,0-.72.02-.96h-14.28c0,.57,0,1.18.01,1.83,0,.65.02,1.34.02,2.07,0,.73.01,1.51.01,2.34v6.15c0,1.05-.01,2.02-.04,2.9-.02.88-.04,1.72-.04,2.53h14.3c-.02-.29-.02-.65-.02-1.08v-2.52c0-.45,0-.82.02-1.1-.6-.02-1.23-.02-1.88-.01-.65,0-1.31.02-1.97.02-.67,0-1.31.01-1.94.01h-2.6s0-.09,0-.14v-2.42c.38,0,.76,0,1.14,0,.62,0,1.23.01,1.84.01s1.22,0,1.83.02c.61.02,1.2.02,1.76.02s1.1,0,1.6.02v-2.77c0-.5,0-.88.02-1.15-.52,0-1.07,0-1.63.02-.56.02-1.15.02-1.76.01-.61,0-1.22,0-1.82,0-.6,0-1.22.02-1.84.02-.39,0-.77,0-1.15,0,0-.38-.01-.79-.02-1.21-.01-.44-.02-.86-.01-1.28h.81Z"/>
    <path class="cls-2" d="M112.39,21.72c0-.47,0-.86.02-1.18h-14.23v5.2c1.28-.02,2.55-.04,3.79-.06.11,0,.21,0,.32,0v.66c0,1.13,0,2.22-.01,3.29,0,1.07-.01,2.08-.01,3.03s0,1.8-.02,2.55c-.02.75-.03,1.41-.04,1.97,0,.56-.03.96-.06,1.2.3-.02.63-.03,1-.04.36,0,.73-.02,1.1-.02.37,0,.72-.01,1.06-.01.3,0,.64,0,1.01.01.37,0,.74.02,1.12.02.37,0,.7.02.99.04-.02-.24-.03-.64-.04-1.2,0-.56-.01-1.23-.01-2s0-1.62-.01-2.55c0-.93-.02-1.93-.04-2.99-.02-1.06-.02-2.15-.02-3.26v-.71c.51,0,1.03.02,1.57.03.84.02,1.69.03,2.54.05-.02-.38-.02-.82-.02-1.31v-2.72Z"/>
    <path class="cls-2" d="M148.47,22.31c-.42-.47-.96-.85-1.63-1.16-.67-.31-1.46-.54-2.38-.69-.92-.15-1.96-.23-3.11-.23-1.57,0-2.93.19-4.07.56-1.15.37-2.1.93-2.85,1.68-.75.74-1.32,1.68-1.71,2.79-.39,1.12-.58,2.46-.58,4.03.02,1.52.21,2.87.59,4.05.38,1.18.94,2.17,1.67,2.96.74.79,1.68,1.39,2.84,1.78,1.16.4,2.5.59,4.04.59s2.77-.13,3.8-.4c1.03-.27,1.86-.68,2.49-1.25.63-.56,1.11-1.25,1.43-2.07.32-.82.52-1.77.61-2.86.09-1.09.11-2.32.06-3.68-.6,0-1.17,0-1.71.01-.54,0-1.07.01-1.58.01h-1.37c-.57,0-1.22,0-1.95.01-.73,0-1.47-.01-2.23-.06v3.47h.91c.31,0,.64,0,1.01-.01.36,0,.71-.01,1.05-.01.12,0,.23,0,.35,0,0,.02,0,.04,0,.06-.04.61-.16,1.1-.36,1.48-.2.38-.48.66-.84.83-.36.17-.85.26-1.45.26s-1.14-.1-1.57-.31c-.43-.21-.78-.51-1.05-.93-.27-.41-.46-.94-.58-1.58-.12-.64-.18-1.42-.18-2.34s.07-1.73.2-2.39c.13-.66.32-1.17.57-1.53.25-.36.57-.63.96-.8.4-.17.89-.25,1.47-.25.55,0,1.03.08,1.41.23.39.15.69.38.89.69.21.31.31.69.31,1.15v.2c0,.06,0,.12-.01.19,0,.07-.01.14-.01.2.36-.02.78-.03,1.26-.04.48,0,.99-.01,1.54-.01s1.08,0,1.59.02c.51.02.96.02,1.35.02.03-.16.05-.32.05-.48v-.52c0-.76-.1-1.45-.31-2.07-.21-.62-.52-1.16-.94-1.63Z"/>
    <path class="cls-2" d="M169.59,22.15c0-.63.03-1.16.06-1.6h-5.16c.02.3.04.65.07,1.06.03.4.06.84.07,1.29.02.46.02.95.02,1.48s0,1.06.02,1.59c.02.53.02,1.07.02,1.6s.01,1.14.04,1.75c.02.61.06,1.26.12,1.94,0,.03,0,.06,0,.09h-.05c-.18-.53-.36-1.06-.56-1.57-.21-.53-.42-1.03-.64-1.49-.28-.48-.58-.97-.88-1.5-.3-.52-.6-1.05-.9-1.57-.3-.52-.59-1.02-.85-1.49-.27-.47-.53-.91-.77-1.34-.25-.43-.46-.8-.63-1.1-.17-.31-.3-.56-.38-.75h-6.7c.03.78.05,1.62.06,2.52,0,.9.01,1.88.01,2.92v3.47c0,1.9,0,3.56-.01,4.98,0,1.42-.03,2.73-.06,3.93h5.25c-.02-.24-.03-.57-.04-.99s-.01-.91-.01-1.49,0-1.22-.01-1.96c0-.74-.01-1.55-.01-2.44-.03-.67-.06-1.34-.09-2.02-.03-.68-.08-1.39-.14-2.14,0-.05,0-.1-.01-.15l.11-.02c.19.58.41,1.15.65,1.73.26.63.53,1.26.8,1.88.36.52.73,1.09,1.1,1.69.37.6.72,1.17,1.06,1.71.33.54.66,1.07.97,1.6.32.53.6,1.01.84,1.44.25.43.44.81.58,1.14h6.08c-.05-1.16-.07-2.44-.07-3.85v-5.08c0-.95,0-1.87-.01-2.76,0-.89,0-1.71.01-2.46.02-.75.03-1.44.04-2.07Z"/>
    <path class="cls-2" d="M130.13,33.28c-.3-1-.59-2.02-.88-3.05-.29-1.04-.57-2.06-.86-3.05-.29-1-.54-1.93-.76-2.8-.22-.87-.43-1.64-.62-2.3-.19-.67-.33-1.17-.43-1.52h-9.5c-.11.35-.25.85-.43,1.51-.17.66-.38,1.42-.62,2.29-.24.87-.49,1.81-.75,2.82-.26,1.01-.53,2.04-.8,3.1-.27,1.06-.55,2.09-.84,3.09-.29,1-.57,1.92-.82,2.77-.25.85-.48,1.6-.69,2.25h6.11c.06-.4.15-.93.27-1.59.1-.54.21-1.13.34-1.78.05,0,.1,0,.14,0h5.3c.06,0,.12,0,.17,0,.03.14.06.28.09.41.14.67.25,1.26.31,1.75.06.49.12.89.17,1.21h6.63c-.22-.67-.46-1.43-.71-2.29-.25-.86-.53-1.79-.83-2.79ZM121.65,31.31c-.38,0-.81,0-1.28-.02-.23,0-.46-.01-.7-.01.17-.77.35-1.55.52-2.31.21-.95.42-1.84.63-2.66.16-.59.3-1.13.44-1.64.13-.51.25-.96.34-1.37.02-.08.03-.15.05-.23h.08c.02.07.04.15.05.23.09.4.19.86.32,1.37.13.51.27,1.04.43,1.59.19.7.37,1.44.55,2.23.17.79.36,1.59.55,2.4.03.14.06.27.09.41-.27,0-.54,0-.79,0-.45,0-.88.01-1.27.01Z"/>
    <path class="cls-1" d="M57.76,1.42c-.1.55-.22,1.2-.36,1.95-.13.74-.29,1.52-.45,2.34-.17.82-.34,1.65-.51,2.51-.17.85-.33,1.68-.48,2.47-.13.54-.25,1.07-.36,1.58-.11.52-.21,1-.31,1.45-.01.07-.03.13-.04.2h-.05c-.01-.06-.03-.12-.04-.19-.1-.48-.21-.97-.32-1.49-.11-.51-.22-1.04-.33-1.58-.14-.63-.29-1.3-.43-2-.14-.7-.28-1.39-.42-2.08-.13-.69-.26-1.35-.37-1.98-.11-.63-.22-1.24-.33-1.82s-.21-1.1-.29-1.56c-.08-.46-.13-.84-.14-1.14h-6.53c.24.59.46,1.3.67,2.14.21.84.44,1.75.71,2.74.27.99.53,2,.8,3.04.26,1.04.51,2.06.76,3.08.25,1.01.47,1.96.68,2.85.21.89.39,1.68.55,2.36.16.69.29,1.22.4,1.6.38-.02.94-.02,1.68-.02h6.12c.46,0,.88,0,1.26.02.08-.44.23-1.08.44-1.92.21-.84.45-1.81.7-2.9.25-1.09.53-2.24.82-3.43.29-1.2.59-2.38.89-3.56.3-1.18.59-2.29.87-3.34.28-1.05.53-1.93.75-2.66h-6.11c-.05.33-.12.78-.23,1.33Z"/>
    <path class="cls-1" d="M44.19,13.89c0-.7-.01-1.45-.01-2.27v-5.3c0-.82,0-1.58.01-2.28,0-.7.02-1.38.02-2.03,0-.65,0-1.29-.01-1.92h-1.77l-3.25,2.4.23,2.01-2.85,1.85,2.3,5.93-.42,3.18-1.43,2.45h7.19c.02-.65.02-1.31.01-1.97,0-.67-.02-1.35-.02-2.04Z"/>
    <path class="cls-1" d="M82.92,15.63c-.11-.46-.22-.93-.33-1.4-.21-.76-.45-1.36-.74-1.81-.29-.44-.66-.79-1.13-1.03-.47-.25-1.07-.41-1.79-.5-.11-.01-.23-.03-.36-.04v-.13c.25-.04.49-.09.71-.14.84-.2,1.51-.51,2.01-.94.5-.43.87-.99,1.1-1.69.24-.7.36-1.53.36-2.49s-.15-1.74-.46-2.42c-.31-.68-.76-1.24-1.35-1.68-.59-.44-1.3-.76-2.13-.96-.82-.21-1.8-.31-2.92-.31h-9.65c.02,1.28.03,2.62.04,4,0,1.39.01,3.02.01,4.91,0,1.27,0,2.41-.01,3.43,0,1.02-.02,1.97-.02,2.85,0,.88-.01,1.75-.01,2.63h5.96c-.08-.79-.14-1.76-.17-2.91-.02-.86-.05-1.77-.07-2.73.15,0,.28,0,.4,0,.21,0,.4,0,.58,0,.18,0,.35,0,.5,0,.15,0,.3.01.46.01h.5c.29,0,.54.02.76.06.22.04.41.13.56.29.15.15.28.36.39.62.11.26.23.6.34,1.02.12.42.23.91.32,1.46.13.65.25,1.13.36,1.44.11.31.25.51.42.61.17.1.39.14.68.14h5.27c-.08-.27-.17-.6-.27-1-.1-.4-.21-.82-.32-1.28ZM76.08,8.45c-.33.17-.76.26-1.28.26-.36-.02-.71-.02-1.03-.02s-.63,0-.91-.01c-.29,0-.55-.02-.78-.04-.06,0-.11,0-.16-.01,0-.53,0-1.07,0-1.63,0-.95,0-1.92.01-2.88.03,0,.06,0,.08,0,.22,0,.46-.03.7-.06.25-.03.48-.05.7-.05s.43,0,.63-.01c.2,0,.35-.01.46-.01.44,0,.82.04,1.14.13.32.09.58.21.8.37.21.16.38.39.5.7.12.31.18.69.18,1.15,0,.52-.09.96-.26,1.32-.17.36-.43.62-.76.8Z"/>
    <path class="cls-1" d="M94.75.09c-.05.19-.12.44-.21.76-.1.32-.2.7-.32,1.14-.12.44-.25.89-.4,1.34-.15.45-.29.92-.43,1.41-.14.49-.27.96-.42,1.4-.16.55-.3,1.07-.42,1.56-.12.48-.23.93-.33,1.34-.01.05-.02.09-.03.14h-.21c-.02-.06-.03-.12-.05-.19-.1-.44-.22-.9-.36-1.38-.13-.48-.27-.98-.39-1.52-.13-.48-.26-.95-.39-1.41-.13-.47-.27-.93-.4-1.38-.13-.45-.25-.89-.36-1.31-.1-.42-.21-.79-.31-1.12-.1-.32-.18-.59-.23-.8h-6.49c.27.46.57,1.06.91,1.79.34.74.71,1.53,1.12,2.39.4.86.8,1.73,1.19,2.61.39.89.74,1.74,1.06,2.55.32.82.6,1.54.84,2.16.13.34.25.64.34.88,0,.46-.01.91-.02,1.34-.02.67-.03,1.27-.05,1.81-.02.54-.03,1.01-.04,1.41,0,.4-.01.7-.01.89.29-.02.63-.03,1.03-.04.4,0,.82-.02,1.24-.02.42,0,.8-.01,1.15-.01s.75,0,1.15.01c.4,0,.8.02,1.19.02.39,0,.74.02,1.06.04,0-.19,0-.49-.01-.89,0-.4-.02-.87-.02-1.39,0-.52-.02-1.13-.04-1.82-.01-.45-.02-.91-.02-1.38.09-.24.2-.52.34-.85.26-.62.55-1.32.88-2.1.32-.78.68-1.62,1.06-2.52.38-.89.76-1.77,1.14-2.64.38-.86.75-1.66,1.1-2.4.36-.74.65-1.36.89-1.87h-5.75Z"/>
    <path class="cls-2" d="M36.81,45.32c.63,0,1.26,0,1.9.02.64.02,1.29.03,1.96.04.67,0,1.32,0,1.97-.01-.02-.27-.02-.63-.02-1.08v-2.33c0-.4,0-.72.02-.96h-9.8l-3.92,4.26.47,2.85-3.39,1.41-1.59,2.31,2.06,4.18-1.42,2.81h17.59c-.02-.29-.02-.65-.02-1.08v-2.52c0-.45,0-.82.02-1.1-.6-.02-1.23-.02-1.88-.01-.65,0-1.31.02-1.97.02-.67,0-1.31.01-1.94.01h-2.6s0-.09,0-.14v-2.42c.38,0,.76,0,1.14,0,.62,0,1.23.01,1.84.01s1.22,0,1.83.02c.61.02,1.2.02,1.76.02s1.1,0,1.6.02v-2.77c0-.5,0-.88.02-1.15-.52,0-1.07,0-1.63.02-.56.02-1.15.02-1.76.01-.61,0-1.22,0-1.82,0-.6,0-1.22.02-1.84.02-.39,0-.77,0-1.15,0,0-.38-.01-.79-.02-1.21-.01-.44-.02-.86-.01-1.28h2.59Z"/>
    <path class="cls-2" d="M113.28,53.48c-.32.01-.7.02-1.2.03-.6,0-1.2.02-1.79.02-.59,0-1.16.01-1.69.01h-.51c0-.07,0-.13,0-.2,0-.55,0-1.12-.01-1.71,0-.59-.01-1.17-.01-1.72,0-1.01,0-1.98.02-2.89.02-.91.02-1.76.01-2.55,0-.79,0-1.48.02-2.08.02-.59.04-1.06.06-1.39h-6.11c0,.57,0,1.29.02,2.16.02.87.02,1.87.01,3.01,0,1.13-.01,2.38-.01,3.74,0,.95,0,1.89-.01,2.8,0,.92,0,1.77,0,2.54,0,.78,0,1.47-.01,2.08-.02.61-.02,1.1-.02,1.48h9.53l1.7-5.34Z"/>
  </g>
  <g>
    <path class="cls-2" d="M14.51,20.74s0,3.26-1.47,6.8-2.59,4.95-3.79,6.33c0,0,1.66.47,3.84-1.03,2.32-1.59,3.41-4.31,3.6-4.44,0,0,.13,4.24-2.08,7.01s-5.76,3.1-5.76,3.1c0,0,.11,1.87,2.9,9.53,2.18,5.97,5.28,10.75,5.28,10.75,0,0-3.04-1.33-6.72-6.35-2.22-3.03-3.91-6.27-3.91-6.27,0,0-.45-.06-1.3,4.27-.69,3.54-.85,8.36-.85,8.36,0,0-4.17-5.88-1.74-20.68.83-5.07,3.71-5.62,7.54-10.45,3.29-4.15,4.46-6.94,4.46-6.94Z"/>
    <path class="cls-2" d="M34.72,0s-.53,3.23-3.87,7.43c-2.43,3.06-5.87,4.99-5.87,4.99,0,0,1.34,1.36,4.33.62,2.57-.63,5.21-4.44,5.21-4.44,0,0-.48,5.5-4.67,7.45-3.3,1.54-7.02-.54-7.09-.38-.6,1.39-.55,2.89-.13,4.05,0,0,3.33-2.64,7.03-.83,3.12,1.52,3.23,7.32,1.01,10.89,0,0-.07-6.47-2.86-6.97-2.16-.39-3.94,1.86-4.26,4.9s.18,6.71,4.9,14.53c0,0-6.15-3.33-9.68-13.76-2.21-6.52-1.49-13.49.56-16.17,2.23-2.92,4.57-2.68,9.08-6.07,3.45-2.6,6.32-6.24,6.32-6.24Z"/>
    <circle class="cls-2" cx="2.69" cy="29.82" r="2.69"/>
    <circle class="cls-2" cx="19.54" cy="6.8" r="2.69"/>
  </g>
</svg>