<?xml version="1.0" encoding="UTF-8"?>
<svg id="Calque_1" data-name="Calque 1" xmlns="http://www.w3.org/2000/svg" viewBox="0 0 15.23 15.61">
  <defs>
    <style>
      .cls-1 {
        fill: #1d1d1b;
        stroke-width: 0px;
      }
    </style>
  </defs>
  <path class="cls-1" d="M9.23,11.99c-3.31,0-5.99-2.69-5.99-5.99S5.93,0,9.23,0s6,2.69,6,6-2.69,5.99-6,5.99ZM9.23,1c-2.75,0-4.99,2.24-4.99,5s2.24,4.99,4.99,4.99,5-2.24,5-4.99S11.99,1,9.23,1Z"/>
  <path class="cls-1" d="M.5,15.61c-.13,0-.26-.05-.35-.15-.2-.2-.2-.51,0-.71l5.04-5.04c.2-.2.51-.2.71,0s.2.51,0,.71L.85,15.47c-.1.1-.23.15-.35.15Z"/>
</svg>