<?xml version="1.0" encoding="UTF-8"?>
<svg id="Calque_1" data-name="Calque 1" xmlns="http://www.w3.org/2000/svg" viewBox="0 0 18.29 18.76">
  <defs>
    <style>
      .cls-1 {
        fill: #1d1d1b;
        stroke-width: 0px;
      }
    </style>
  </defs>
  <path class="cls-1" d="M11.11,14.36c-3.96,0-7.18-3.22-7.18-7.18S7.16,0,11.11,0s7.18,3.22,7.18,7.18-3.22,7.18-7.18,7.18ZM11.11,1c-3.41,0-6.18,2.77-6.18,6.18s2.77,6.18,6.18,6.18,6.18-2.77,6.18-6.18S14.52,1,11.11,1Z"/>
  <path class="cls-1" d="M.5,18.76c-.13,0-.26-.05-.35-.15-.2-.2-.2-.51,0-.71l6.13-6.13c.2-.2.51-.2.71,0s.2.51,0,.71L.85,18.61c-.1.1-.23.15-.35.15Z"/>
</svg>