<?xml version="1.0" encoding="UTF-8"?>
<svg id="Calque_1" data-name="Calque 1" xmlns="http://www.w3.org/2000/svg" viewBox="0 0 33.26 56.34">
  <defs>
    <style>
      .cls-1 {
        fill: #e62a28;
        stroke-width: 0px;
      }
    </style>
  </defs>
  <path class="cls-1" d="M13.9,19.86s0,3.12-1.41,6.51-2.49,4.74-3.63,6.06c0,0,1.59.45,3.68-.98,2.22-1.52,3.27-4.13,3.45-4.25,0,0,.12,4.06-1.99,6.72s-5.52,2.97-5.52,2.97c0,0,.1,1.79,2.78,9.13,2.09,5.72,5.05,10.3,5.05,10.3,0,0-2.92-1.27-6.44-6.08-2.13-2.9-3.74-6-3.74-6,0,0-.43-.06-1.24,4.09-.66,3.39-.82,8.01-.82,8.01,0,0-4-5.63-1.67-19.81.8-4.86,3.55-5.38,7.23-10.01,3.15-3.98,4.27-6.65,4.27-6.65Z"/>
  <path class="cls-1" d="M33.26,0s-.51,3.09-3.71,7.12c-2.33,2.93-5.62,4.78-5.62,4.78,0,0,1.28,1.3,4.14.6,2.47-.61,4.99-4.25,4.99-4.25,0,0-.46,5.27-4.47,7.14-3.16,1.48-6.73-.51-6.79-.37-.58,1.33-.53,2.77-.13,3.88,0,0,3.19-2.53,6.73-.8,2.99,1.46,3.09,7.01.96,10.43,0,0-.06-6.19-2.74-6.67-2.07-.37-3.78,1.79-4.08,4.69-.29,2.77.18,6.42,4.69,13.92,0,0-5.89-3.19-9.28-13.18-2.11-6.24-1.43-12.93.53-15.49,2.14-2.8,4.38-2.56,8.7-5.82C30.5,3.49,33.26,0,33.26,0Z"/>
  <circle class="cls-1" cx="2.57" cy="28.57" r="2.57"/>
  <circle class="cls-1" cx="18.72" cy="6.51" r="2.57"/>
</svg>